<svg width="1000" height="308" viewBox="0 0 1000 308" fill="none" xmlns="http://www.w3.org/2000/svg">
<g clip-path="url(#clip0_13_1491)">
<rect width="1000" height="308" fill="white"/>
<g clip-path="url(#clip1_13_1491)">
<path d="M1100 -5077H-100V2123H1100V-5077Z" fill="white"/>
<path d="M1100 -5077H-100V2123H1100V-5077Z" fill="white"/>
<mask id="mask0_13_1491" style="mask-type:luminance" maskUnits="userSpaceOnUse" x="33" y="25" width="934" height="240">
<path d="M33.3334 25.667H966.667V264.526H33.3334V25.667Z" fill="white"/>
</mask>
<g mask="url(#mask0_13_1491)">
<mask id="mask1_13_1491" style="mask-type:luminance" maskUnits="userSpaceOnUse" x="33" y="26" width="933" height="239">
<path d="M46.4115 26.3125H952.885C960.068 26.3125 965.885 32.1302 965.885 39.3125V251.526C965.885 258.708 960.068 264.526 952.885 264.526H46.4115C39.2344 264.526 33.4115 258.708 33.4115 251.526V39.3125C33.4115 32.1302 39.2344 26.3125 46.4115 26.3125Z" fill="white"/>
</mask>
<g mask="url(#mask1_13_1491)">
<mask id="mask2_13_1491" style="mask-type:luminance" maskUnits="userSpaceOnUse" x="33" y="25" width="934" height="241">
<path d="M966.667 25.667H33.3334V265.667H966.667V25.667Z" fill="white"/>
</mask>
<g mask="url(#mask2_13_1491)">
<mask id="mask3_13_1491" style="mask-type:luminance" maskUnits="userSpaceOnUse" x="33" y="26" width="933" height="239">
<path d="M33.4115 26.3125H965.813V264.526H33.4115V26.3125Z" fill="white"/>
</mask>
<g mask="url(#mask3_13_1491)">
<mask id="mask4_13_1491" style="mask-type:luminance" maskUnits="userSpaceOnUse" x="33" y="26" width="933" height="239">
<path d="M46.4115 26.3125H952.885C960.068 26.3125 965.885 32.1302 965.885 39.3125V251.526C965.885 258.708 960.068 264.526 952.885 264.526H46.4115C39.2344 264.526 33.4115 258.708 33.4115 251.526V39.3125C33.4115 32.1302 39.2344 26.3125 46.4115 26.3125Z" fill="white"/>
</mask>
<g mask="url(#mask4_13_1491)">
<path d="M33.4115 26.3125V264.526H965.813V26.3125H33.4115Z" fill="url(#paint0_linear_13_1491)"/>
</g>
</g>
</g>
</g>
</g>
<path d="M116.117 91.6777V114.011H121.638V119.428H93.93C92.1904 119.428 90.5602 119.105 89.0341 118.449C87.5029 117.782 86.1643 116.881 85.0133 115.74C83.8727 114.605 82.9716 113.271 82.305 111.74C81.6487 110.214 81.3258 108.584 81.3258 106.844V96.7402H86.7841V106.844C86.7841 107.844 86.9612 108.782 87.3258 109.657C87.7008 110.521 88.2112 111.277 88.8675 111.928C89.5185 112.568 90.2737 113.074 91.1383 113.449C92.0133 113.824 92.9404 114.011 93.93 114.011H110.659V91.6777H116.117ZM95.9716 127.386C95.9716 126.62 96.2321 125.969 96.7633 125.428C97.305 124.896 97.956 124.636 98.7216 124.636C99.1071 124.636 99.4716 124.704 99.805 124.844C100.138 124.995 100.43 125.199 100.68 125.449C100.94 125.699 101.144 125.99 101.284 126.324C101.42 126.657 101.492 127.011 101.492 127.386C101.492 127.771 101.42 128.136 101.284 128.469C101.144 128.803 100.94 129.094 100.68 129.344C100.43 129.605 100.138 129.808 99.805 129.949C99.4716 130.1 99.1071 130.178 98.7216 130.178C98.3466 130.178 97.9821 130.1 97.6383 129.949C97.305 129.808 97.0133 129.605 96.7633 129.344C96.5237 129.094 96.331 128.803 96.18 128.469C96.0393 128.136 95.9716 127.771 95.9716 127.386Z" fill="white"/>
<path d="M130.199 80.9072V114.011H135.719V119.428H119.219V114.011H124.761V80.9072H130.199Z" fill="white"/>
<path d="M144.29 80.9072V96.5114C145.207 95.7926 146.186 95.1312 147.227 94.5322C148.279 93.9385 149.363 93.4281 150.477 93.0114C151.602 92.5843 152.738 92.251 153.894 92.0114C155.045 91.7614 156.175 91.6364 157.29 91.6364C158.873 91.6364 160.373 91.8656 161.79 92.3239C163.217 92.7822 164.467 93.5322 165.54 94.5739C166.608 95.6051 167.457 96.9385 168.082 98.5739C168.717 100.215 169.04 102.22 169.04 104.595V114.011H174.561V119.428H133.311V114.011H138.873V80.9072H144.29ZM157.29 97.0739C156.316 97.0739 155.316 97.1937 154.29 97.4281C153.274 97.652 152.279 97.9645 151.311 98.3656C150.352 98.7562 149.446 99.2197 148.602 99.7614C147.753 100.303 147.009 100.897 146.373 101.532C145.733 102.157 145.227 102.819 144.852 103.511C144.477 104.194 144.29 104.876 144.29 105.553V114.011H163.602V104.595C163.602 103.22 163.436 102.063 163.102 101.116C162.769 100.173 162.311 99.402 161.727 98.8031C161.154 98.1937 160.488 97.7562 159.727 97.4906C158.962 97.2145 158.149 97.0739 157.29 97.0739Z" fill="white"/>
<path d="M183.606 80.9072V110.553C183.606 111.777 183.366 112.928 182.897 114.011C182.439 115.084 181.804 116.022 181.002 116.824C180.194 117.631 179.252 118.272 178.168 118.741C177.085 119.199 175.929 119.428 174.71 119.428H172.147V114.011H174.71C175.179 114.011 175.632 113.923 176.064 113.741C176.491 113.563 176.861 113.319 177.168 113.011C177.486 112.694 177.736 112.324 177.918 111.907C178.095 111.48 178.189 111.027 178.189 110.553V80.9072H183.606Z" fill="white"/>
<path d="M195.033 80.9072V119.428H189.616V80.9072H195.033Z" fill="white"/>
<path d="M211.915 91.6362C215.233 91.6362 218.066 91.9227 220.415 92.4904C222.759 93.0477 224.675 93.8758 226.165 94.9696C227.665 96.0685 228.759 97.4227 229.457 99.0321C230.149 100.631 230.498 102.47 230.498 104.553V114.011H236.019V119.428H210.352V114.011H225.082V104.553C225.082 103.36 224.832 102.298 224.332 101.365C223.842 100.438 223.066 99.6519 221.998 99.0112C220.941 98.3758 219.582 97.8966 217.915 97.5737C216.259 97.2404 214.259 97.0737 211.915 97.0737V91.6362Z" fill="white"/>
<path d="M248.319 91.6777V114.011H253.86V119.428H233.61V114.011H242.902V91.6777H248.319ZM242.735 127.469C242.735 127.094 242.803 126.74 242.944 126.407C243.079 126.074 243.277 125.771 243.527 125.511C243.788 125.261 244.09 125.058 244.423 124.907C244.756 124.766 245.116 124.699 245.506 124.699C245.881 124.699 246.235 124.766 246.569 124.907C246.913 125.058 247.204 125.261 247.444 125.511C247.694 125.771 247.887 126.074 248.027 126.407C248.178 126.74 248.256 127.094 248.256 127.469C248.256 128.23 247.985 128.876 247.444 129.407C246.913 129.949 246.267 130.219 245.506 130.219C245.116 130.219 244.756 130.146 244.423 130.011C244.09 129.87 243.788 129.678 243.527 129.428C243.277 129.178 243.079 128.886 242.944 128.553C242.803 128.219 242.735 127.855 242.735 127.469ZM234.61 127.469C234.61 127.094 234.683 126.74 234.819 126.407C234.97 126.074 235.173 125.771 235.423 125.511C235.683 125.261 235.985 125.058 236.319 124.907C236.652 124.766 237.012 124.699 237.402 124.699C237.777 124.699 238.131 124.766 238.465 124.907C238.798 125.058 239.095 125.261 239.36 125.511C239.621 125.771 239.824 126.074 239.965 126.407C240.1 126.74 240.173 127.094 240.173 127.469C240.173 127.855 240.1 128.219 239.965 128.553C239.824 128.886 239.621 129.178 239.36 129.428C239.095 129.678 238.798 129.87 238.465 130.011C238.131 130.146 237.777 130.219 237.402 130.219C237.012 130.219 236.652 130.146 236.319 130.011C235.985 129.87 235.683 129.678 235.423 129.428C235.173 129.178 234.97 128.886 234.819 128.553C234.683 128.219 234.61 127.855 234.61 127.469Z" fill="white"/>
<path d="M275.933 84.3027L267.537 91.7611C267.964 91.7194 268.396 91.6934 268.829 91.6777C269.256 91.6517 269.693 91.6361 270.141 91.6361C271.417 91.6361 272.683 91.7194 273.933 91.8861C275.193 92.0527 276.396 92.334 277.537 92.7194C278.688 93.11 279.756 93.6257 280.745 94.2611C281.73 94.9017 282.579 95.6986 283.287 96.6569C284.006 97.6152 284.568 98.7507 284.975 100.053C285.391 101.36 285.6 102.86 285.6 104.553V110.636C285.6 111.86 285.36 113.006 284.891 114.074C284.433 115.146 283.792 116.074 282.975 116.865C282.167 117.657 281.214 118.282 280.12 118.74C279.037 119.199 277.876 119.428 276.641 119.428H251.454V114.011H276.641C277.141 114.011 277.605 113.923 278.037 113.74C278.464 113.563 278.834 113.318 279.141 113.011C279.459 112.709 279.709 112.355 279.891 111.949C280.068 111.532 280.162 111.094 280.162 110.636V104.553C280.162 103.084 279.87 101.865 279.287 100.907C278.704 99.9486 277.938 99.1882 276.995 98.6152C276.047 98.0475 274.975 97.6517 273.766 97.4277C272.568 97.1934 271.36 97.0736 270.141 97.0736C269.016 97.0736 267.881 97.1517 266.745 97.3027C265.62 97.459 264.558 97.6465 263.558 97.8652C262.568 98.0892 261.688 98.3236 260.912 98.5736C260.146 98.8236 259.558 99.0475 259.141 99.2402L256.683 94.7402L272.037 80.4902L275.933 84.3027Z" fill="white"/>
<path d="M297.064 80.9072V110.553C297.064 111.027 297.153 111.48 297.335 111.907C297.512 112.324 297.757 112.694 298.064 113.011C298.382 113.319 298.752 113.563 299.169 113.741C299.596 113.923 300.049 114.011 300.523 114.011H303.064V119.428H300.523C299.283 119.428 298.127 119.199 297.044 118.741C295.96 118.272 295.012 117.631 294.21 116.824C293.419 116.022 292.783 115.084 292.314 114.011C291.84 112.928 291.606 111.777 291.606 110.553V80.9072H297.064ZM297.773 71.2406H295.481H295.502C294.861 71.2718 294.387 71.4697 294.085 71.8447C293.794 72.2093 293.648 72.6104 293.648 73.0531C293.648 73.3343 293.674 73.6104 293.731 73.8864C293.783 74.152 293.861 74.3968 293.96 74.6156C294.054 74.8395 294.174 75.0218 294.314 75.1572C294.465 75.2822 294.617 75.3447 294.773 75.3447H298.835V78.0322H290.002V75.3447H291.419C291.111 74.5843 290.96 73.8187 290.96 73.0531C290.96 72.4854 291.033 71.9385 291.189 71.4072C291.356 70.8656 291.611 70.3864 291.96 69.9697C292.32 69.5426 292.783 69.1989 293.356 68.9489C293.939 68.6885 294.637 68.5479 295.46 68.5322H297.773V71.2406Z" fill="white"/>
<path d="M315.388 91.6781V114.011H320.95V119.428H300.7V114.011H309.971V91.6781H315.388ZM309.888 83.6781C309.888 83.2926 309.955 82.9281 310.096 82.5947C310.247 82.2614 310.45 81.9697 310.7 81.7197C310.961 81.4593 311.263 81.2562 311.596 81.1156C311.929 80.9801 312.284 80.9072 312.659 80.9072C313.044 80.9072 313.409 80.9801 313.742 81.1156C314.075 81.2562 314.367 81.4593 314.617 81.7197C314.867 81.9697 315.06 82.2614 315.2 82.5947C315.336 82.9281 315.409 83.2926 315.409 83.6781C315.409 84.4437 315.138 85.0947 314.596 85.6364C314.065 86.1676 313.419 86.4281 312.659 86.4281C312.284 86.4281 311.929 86.3604 311.596 86.2197C311.263 86.0687 310.961 85.876 310.7 85.6364C310.45 85.3864 310.247 85.0947 310.096 84.7614C309.955 84.4176 309.888 84.0531 309.888 83.6781ZM301.804 83.6781C301.804 83.2926 301.872 82.9281 302.013 82.5947C302.164 82.2614 302.367 81.9697 302.617 81.7197C302.867 81.4593 303.159 81.2562 303.492 81.1156C303.825 80.9801 304.179 80.9072 304.554 80.9072C304.94 80.9072 305.304 80.9801 305.638 81.1156C305.971 81.2562 306.263 81.4593 306.513 81.7197C306.773 81.9697 306.976 82.2614 307.117 82.5947C307.268 82.9281 307.346 83.2926 307.346 83.6781C307.346 84.0531 307.268 84.4176 307.117 84.7614C306.976 85.0947 306.773 85.3864 306.513 85.6364C306.263 85.876 305.971 86.0687 305.638 86.2197C305.304 86.3604 304.94 86.4281 304.554 86.4281C303.789 86.4281 303.138 86.1676 302.596 85.6364C302.065 85.0947 301.804 84.4437 301.804 83.6781Z" fill="white"/>
<path d="M329.989 80.9072V110.553C329.989 111.777 329.749 112.928 329.28 114.011C328.822 115.084 328.187 116.022 327.384 116.824C326.577 117.631 325.634 118.272 324.551 118.741C323.468 119.199 322.312 119.428 321.093 119.428H318.53V114.011H321.093C321.562 114.011 322.015 113.923 322.447 113.741C322.874 113.563 323.244 113.319 323.551 113.011C323.869 112.694 324.119 112.324 324.301 111.907C324.478 111.48 324.572 111.027 324.572 110.553V80.9072H329.989Z" fill="white"/>
<path d="M385.828 119.428H376.745C375.62 120.636 374.297 121.574 372.787 122.24C371.271 122.907 369.641 123.24 367.891 123.24C366.167 123.24 364.547 122.891 363.037 122.199C361.537 121.516 360.224 120.594 359.099 119.428C357.974 118.277 357.084 116.938 356.433 115.407C355.776 113.881 355.453 112.271 355.453 110.574V110.032C354.578 110.131 353.839 110.324 353.245 110.615C352.662 110.907 352.183 111.282 351.808 111.74C351.433 112.188 351.162 112.693 350.995 113.261C350.839 113.818 350.766 114.417 350.766 115.053V130.178H345.308V115.053C345.308 113.678 345.495 112.376 345.87 111.136C346.245 109.902 346.834 108.818 347.641 107.886C348.459 106.943 349.506 106.188 350.787 105.615C352.063 105.032 353.62 104.693 355.453 104.594V104.324C355.453 102.646 355.776 101.042 356.433 99.5111C357.084 97.985 357.974 96.6465 359.099 95.4902C360.224 94.3236 361.537 93.4017 363.037 92.7194C364.547 92.0267 366.167 91.6777 367.891 91.6777C369.584 91.6777 371.188 92.0111 372.703 92.6777C374.214 93.3444 375.526 94.2559 376.641 95.4069C377.75 96.5475 378.631 97.8861 379.287 99.4277C379.938 100.959 380.266 102.589 380.266 104.324V110.511C380.266 111.761 380.11 112.928 379.808 114.011H385.828V119.428ZM374.849 104.324C374.849 103.339 374.667 102.407 374.308 101.532C373.943 100.646 373.443 99.8809 372.808 99.2402C372.183 98.5892 371.443 98.0736 370.599 97.6986C369.75 97.3132 368.849 97.1152 367.891 97.1152C366.917 97.1152 366 97.3132 365.141 97.6986C364.292 98.0892 363.547 98.6152 362.912 99.2819C362.271 99.9382 361.771 100.699 361.412 101.574C361.047 102.438 360.87 103.355 360.87 104.324V110.574C360.87 111.548 361.047 112.48 361.412 113.365C361.771 114.24 362.271 115.011 362.912 115.678C363.547 116.334 364.292 116.855 365.141 117.24C366 117.615 366.917 117.803 367.891 117.803C368.849 117.803 369.75 117.615 370.599 117.24C371.443 116.855 372.183 116.334 372.808 115.678C373.443 115.011 373.943 114.24 374.308 113.365C374.667 112.48 374.849 111.527 374.849 110.511V104.324Z" fill="white"/>
<path d="M408.068 84.3027L399.672 91.7611C400.1 91.7194 400.532 91.6934 400.964 91.6777C401.407 91.6517 401.839 91.6361 402.256 91.6361C403.532 91.6361 404.803 91.7194 406.068 91.8861C407.329 92.0527 408.532 92.334 409.672 92.7194C410.823 93.11 411.886 93.6257 412.86 94.2611C413.844 94.9017 414.693 95.6986 415.402 96.6569C416.12 97.6152 416.693 98.7507 417.11 100.053C417.527 101.36 417.735 102.86 417.735 104.553V114.011H423.256V119.428H383.402V114.011H412.277V104.553C412.277 103.084 411.985 101.865 411.402 100.907C410.818 99.9486 410.053 99.1882 409.11 98.6152C408.162 98.0475 407.089 97.6517 405.881 97.4277C404.683 97.1934 403.475 97.0736 402.256 97.0736C401.131 97.0736 400.006 97.1517 398.881 97.3027C397.756 97.459 396.693 97.6465 395.693 97.8652C394.704 98.0892 393.823 98.3236 393.047 98.5736C392.266 98.8236 391.672 99.0475 391.256 99.2402L388.797 94.7402L404.172 80.4902L408.068 84.3027Z" fill="white"/>
<path d="M429.981 127.386C429.981 127.011 430.049 126.657 430.189 126.324C430.34 125.99 430.543 125.699 430.793 125.449C431.054 125.199 431.356 124.995 431.689 124.844C432.023 124.704 432.377 124.636 432.752 124.636C433.512 124.636 434.158 124.896 434.689 125.428C435.231 125.969 435.502 126.62 435.502 127.386C435.502 127.771 435.429 128.136 435.293 128.469C435.153 128.803 434.96 129.094 434.71 129.344C434.46 129.605 434.168 129.808 433.835 129.949C433.502 130.1 433.137 130.178 432.752 130.178C432.377 130.178 432.023 130.1 431.689 129.949C431.356 129.808 431.054 129.605 430.793 129.344C430.543 129.094 430.34 128.803 430.189 128.469C430.049 128.136 429.981 127.771 429.981 127.386ZM435.543 91.6777V110.511C435.543 111.761 435.304 112.928 434.835 114.011C434.361 115.084 433.72 116.021 432.918 116.824C432.127 117.631 431.189 118.271 430.106 118.74C429.023 119.199 427.866 119.428 426.648 119.428H420.835V114.011H426.648C427.132 114.011 427.585 113.923 428.002 113.74C428.418 113.563 428.783 113.318 429.106 113.011C429.424 112.693 429.674 112.324 429.856 111.907C430.033 111.48 430.127 111.011 430.127 110.511V91.6777H435.543Z" fill="white"/>
<path d="M479.37 80.9072V117.574C479.37 119.683 478.953 121.522 478.12 123.095C477.297 124.678 476.224 125.996 474.89 127.053C473.557 128.121 472.036 128.912 470.328 129.428C468.62 129.954 466.875 130.22 465.099 130.22C463.318 130.22 461.578 129.954 459.87 129.428C458.161 128.912 456.63 128.121 455.286 127.053C453.953 125.996 452.875 124.678 452.057 123.095C451.25 121.522 450.849 119.683 450.849 117.574V96.7406H456.307V117.574C456.307 118.772 456.557 119.813 457.057 120.72C457.568 121.636 458.234 122.392 459.057 122.991C459.875 123.6 460.807 124.058 461.849 124.366C462.901 124.668 463.984 124.824 465.099 124.824C466.208 124.824 467.286 124.668 468.328 124.366C469.38 124.058 470.318 123.6 471.14 122.991C471.974 122.392 472.64 121.636 473.14 120.72C473.651 119.813 473.911 118.772 473.911 117.574V80.9072H479.37Z" fill="white"/>
<path d="M490.819 80.9072V110.553C490.819 111.027 490.908 111.48 491.09 111.907C491.267 112.324 491.512 112.694 491.819 113.011C492.137 113.319 492.507 113.563 492.923 113.741C493.35 113.923 493.804 114.011 494.278 114.011H496.819V119.428H494.278C493.054 119.428 491.903 119.199 490.819 118.741C489.746 118.272 488.804 117.631 487.986 116.824C487.179 116.022 486.538 115.084 486.069 114.011C485.595 112.928 485.361 111.777 485.361 110.553V80.9072H490.819Z" fill="white"/>
<path d="M505.413 91.6777V96.5319C506.33 95.8236 507.314 95.1725 508.372 94.5736C509.424 93.9798 510.517 93.4642 511.642 93.0319C512.767 92.6048 513.898 92.2715 515.038 92.0319C516.189 91.7975 517.319 91.6777 518.434 91.6777C520.017 91.6777 521.517 91.9069 522.934 92.3652C524.361 92.8236 525.611 93.5684 526.684 94.5944C527.752 95.61 528.59 96.9382 529.205 98.5736C529.83 100.214 530.142 102.219 530.142 104.594V114.011H535.663V119.428H494.413V114.011H499.976V91.6777H505.413ZM518.434 97.1152C517.444 97.1152 516.439 97.235 515.413 97.4694C514.398 97.6934 513.403 98.0007 512.434 98.3861C511.476 98.7767 510.569 99.2507 509.726 99.8027C508.877 100.344 508.132 100.928 507.497 101.553C506.856 102.178 506.351 102.839 505.976 103.532C505.601 104.214 505.413 104.902 505.413 105.594V114.011H524.705V104.594C524.705 103.219 524.538 102.063 524.205 101.115C523.872 100.173 523.413 99.4017 522.83 98.8027C522.257 98.209 521.59 97.7767 520.83 97.5111C520.064 97.2507 519.267 97.1152 518.434 97.1152Z" fill="white"/>
<path d="M547.958 91.6781V110.511C547.958 111.761 547.719 112.928 547.25 114.011C546.776 115.084 546.135 116.022 545.333 116.824C544.542 117.631 543.604 118.272 542.521 118.741C541.438 119.199 540.281 119.428 539.063 119.428H533.25V114.011H539.063C539.547 114.011 540 113.923 540.417 113.741C540.833 113.563 541.198 113.319 541.521 113.011C541.839 112.694 542.089 112.324 542.271 111.907C542.448 111.48 542.542 111.011 542.542 110.511V91.6781H547.958ZM542.5 83.6781C542.5 83.2926 542.568 82.9281 542.708 82.5947C542.859 82.2614 543.063 81.9697 543.313 81.7197C543.573 81.4593 543.875 81.2562 544.208 81.1156C544.542 80.9801 544.901 80.9072 545.292 80.9072C545.667 80.9072 546.021 80.9801 546.354 81.1156C546.688 81.2562 546.979 81.4593 547.229 81.7197C547.479 81.9697 547.672 82.2614 547.813 82.5947C547.964 82.9281 548.042 83.2926 548.042 83.6781C548.042 84.4437 547.771 85.0947 547.229 85.6364C546.698 86.1676 546.052 86.4281 545.292 86.4281C544.901 86.4281 544.542 86.3604 544.208 86.2197C543.875 86.0687 543.573 85.876 543.313 85.6364C543.063 85.3864 542.859 85.0947 542.708 84.7614C542.568 84.4176 542.5 84.0531 542.5 83.6781ZM534.438 83.6781C534.438 83.2926 534.505 82.9281 534.646 82.5947C534.781 82.2614 534.979 81.9697 535.229 81.7197C535.479 81.4593 535.771 81.2562 536.104 81.1156C536.438 80.9801 536.797 80.9072 537.188 80.9072C537.563 80.9072 537.917 80.9801 538.25 81.1156C538.583 81.2562 538.875 81.4593 539.125 81.7197C539.385 81.9697 539.589 82.2614 539.729 82.5947C539.88 82.9281 539.958 83.2926 539.958 83.6781C539.958 84.0531 539.88 84.4176 539.729 84.7614C539.589 85.0947 539.385 85.3864 539.125 85.6364C538.875 85.876 538.583 86.0687 538.25 86.2197C537.917 86.3604 537.563 86.4281 537.188 86.4281C536.422 86.4281 535.771 86.1676 535.229 85.6364C534.698 85.0947 534.438 84.4437 534.438 83.6781Z" fill="white"/>
<path d="M559.5 80.9072V110.553C559.5 111.027 559.588 111.48 559.77 111.907C559.948 112.324 560.192 112.694 560.5 113.011C560.817 113.319 561.187 113.563 561.604 113.741C562.031 113.923 562.484 114.011 562.958 114.011H565.5V119.428H562.958C561.734 119.428 560.583 119.199 559.5 118.741C558.427 118.272 557.484 117.631 556.666 116.824C555.859 116.022 555.218 115.084 554.75 114.011C554.276 112.928 554.041 111.777 554.041 110.553V80.9072H559.5Z" fill="white"/>
<path d="M574.552 80.9072V110.553C574.552 111.777 574.312 112.928 573.844 114.011C573.385 115.084 572.75 116.022 571.948 116.824C571.141 117.631 570.198 118.272 569.115 118.741C568.031 119.199 566.875 119.428 565.656 119.428H563.094V114.011H565.656C566.125 114.011 566.578 113.923 567.01 113.741C567.437 113.563 567.807 113.319 568.115 113.011C568.432 112.694 568.682 112.324 568.865 111.907C569.042 111.48 569.135 111.027 569.135 110.553V80.9072H574.552Z" fill="white"/>
<path d="M585.979 80.9072V119.428H580.563V80.9072H585.979Z" fill="white"/>
<path d="M641.819 119.428H632.736C631.611 120.636 630.288 121.574 628.778 122.24C627.262 122.907 625.632 123.24 623.882 123.24C622.158 123.24 620.538 122.891 619.028 122.199C617.528 121.516 616.215 120.594 615.09 119.428C613.965 118.277 613.075 116.938 612.424 115.407C611.767 113.881 611.444 112.271 611.444 110.574V110.032C610.569 110.131 609.83 110.324 609.236 110.615C608.653 110.907 608.174 111.282 607.799 111.74C607.424 112.188 607.153 112.693 606.986 113.261C606.83 113.818 606.757 114.417 606.757 115.053V130.178H601.299V115.053C601.299 113.678 601.486 112.376 601.861 111.136C602.236 109.902 602.825 108.818 603.632 107.886C604.45 106.943 605.497 106.188 606.778 105.615C608.054 105.032 609.611 104.693 611.444 104.594V104.324C611.444 102.646 611.767 101.042 612.424 99.5111C613.075 97.985 613.965 96.6465 615.09 95.4902C616.215 94.3236 617.528 93.4017 619.028 92.7194C620.538 92.0267 622.158 91.6777 623.882 91.6777C625.575 91.6777 627.179 92.0111 628.694 92.6777C630.205 93.3444 631.517 94.2559 632.632 95.4069C633.741 96.5475 634.622 97.8861 635.278 99.4277C635.929 100.959 636.257 102.589 636.257 104.324V110.511C636.257 111.761 636.101 112.928 635.799 114.011H641.819V119.428ZM630.84 104.324C630.84 103.339 630.658 102.407 630.299 101.532C629.934 100.646 629.434 99.8809 628.799 99.2402C628.174 98.5892 627.434 98.0736 626.59 97.6986C625.741 97.3132 624.84 97.1152 623.882 97.1152C622.908 97.1152 621.991 97.3132 621.132 97.6986C620.283 98.0892 619.538 98.6152 618.903 99.2819C618.262 99.9382 617.762 100.699 617.403 101.574C617.038 102.438 616.861 103.355 616.861 104.324V110.574C616.861 111.548 617.038 112.48 617.403 113.365C617.762 114.24 618.262 115.011 618.903 115.678C619.538 116.334 620.283 116.855 621.132 117.24C621.991 117.615 622.908 117.803 623.882 117.803C624.84 117.803 625.741 117.615 626.59 117.24C627.434 116.855 628.174 116.334 628.799 115.678C629.434 115.011 629.934 114.24 630.299 113.365C630.658 112.48 630.84 111.527 630.84 110.511V104.324Z" fill="white"/>
<path d="M654.122 91.6781V114.011H659.684V119.428H639.434V114.011H648.705V91.6781H654.122ZM648.622 83.6781C648.622 83.2926 648.69 82.9281 648.83 82.5947C648.981 82.2614 649.184 81.9697 649.434 81.7197C649.695 81.4593 649.997 81.2562 650.33 81.1156C650.663 80.9801 651.018 80.9072 651.393 80.9072C651.778 80.9072 652.143 80.9801 652.476 81.1156C652.809 81.2562 653.101 81.4593 653.351 81.7197C653.601 81.9697 653.794 82.2614 653.934 82.5947C654.07 82.9281 654.143 83.2926 654.143 83.6781C654.143 84.4437 653.872 85.0947 653.33 85.6364C652.799 86.1676 652.153 86.4281 651.393 86.4281C651.018 86.4281 650.663 86.3604 650.33 86.2197C649.997 86.0687 649.695 85.876 649.434 85.6364C649.184 85.3864 648.981 85.0947 648.83 84.7614C648.69 84.4176 648.622 84.0531 648.622 83.6781ZM640.538 83.6781C640.538 83.2926 640.606 82.9281 640.747 82.5947C640.898 82.2614 641.101 81.9697 641.351 81.7197C641.601 81.4593 641.893 81.2562 642.226 81.1156C642.559 80.9801 642.913 80.9072 643.288 80.9072C643.674 80.9072 644.038 80.9801 644.372 81.1156C644.705 81.2562 644.997 81.4593 645.247 81.7197C645.507 81.9697 645.71 82.2614 645.851 82.5947C646.002 82.9281 646.08 83.2926 646.08 83.6781C646.08 84.0531 646.002 84.4176 645.851 84.7614C645.71 85.0947 645.507 85.3864 645.247 85.6364C644.997 85.876 644.705 86.0687 644.372 86.2197C644.038 86.3604 643.674 86.4281 643.288 86.4281C642.523 86.4281 641.872 86.1676 641.33 85.6364C640.799 85.0947 640.538 84.4437 640.538 83.6781Z" fill="white"/>
<path d="M671.973 91.6777V114.011H677.514V119.428H657.264V114.011H666.556V91.6777H671.973ZM666.389 127.469C666.389 127.094 666.457 126.74 666.598 126.407C666.733 126.074 666.931 125.771 667.181 125.511C667.441 125.261 667.744 125.058 668.077 124.907C668.41 124.766 668.77 124.699 669.16 124.699C669.535 124.699 669.889 124.766 670.223 124.907C670.566 125.058 670.858 125.261 671.098 125.511C671.348 125.771 671.54 126.074 671.681 126.407C671.832 126.74 671.91 127.094 671.91 127.469C671.91 128.23 671.639 128.876 671.098 129.407C670.566 129.949 669.921 130.219 669.16 130.219C668.77 130.219 668.41 130.146 668.077 130.011C667.744 129.87 667.441 129.678 667.181 129.428C666.931 129.178 666.733 128.886 666.598 128.553C666.457 128.219 666.389 127.855 666.389 127.469ZM658.264 127.469C658.264 127.094 658.337 126.74 658.473 126.407C658.624 126.074 658.827 125.771 659.077 125.511C659.337 125.261 659.639 125.058 659.973 124.907C660.306 124.766 660.665 124.699 661.056 124.699C661.431 124.699 661.785 124.766 662.119 124.907C662.452 125.058 662.749 125.261 663.014 125.511C663.275 125.771 663.478 126.074 663.619 126.407C663.754 126.74 663.827 127.094 663.827 127.469C663.827 127.855 663.754 128.219 663.619 128.553C663.478 128.886 663.275 129.178 663.014 129.428C662.749 129.678 662.452 129.87 662.119 130.011C661.785 130.146 661.431 130.219 661.056 130.219C660.665 130.219 660.306 130.146 659.973 130.011C659.639 129.87 659.337 129.678 659.077 129.428C658.827 129.178 658.624 128.886 658.473 128.553C658.337 128.219 658.264 127.855 658.264 127.469Z" fill="white"/>
<path d="M703.045 91.6777V114.011H706.483C706.951 114.011 707.405 113.923 707.837 113.74C708.264 113.563 708.639 113.318 708.962 113.011C709.295 112.709 709.55 112.355 709.733 111.949C709.91 111.532 710.004 111.094 710.004 110.636V91.6777H715.441V110.636C715.441 111.86 715.201 113.006 714.733 114.074C714.274 115.146 713.634 116.074 712.816 116.865C712.009 117.657 711.056 118.282 709.962 118.74C708.879 119.199 707.717 119.428 706.483 119.428H675.108V114.011H685.253V91.6777H690.67V114.011H697.629V91.6777H703.045Z" fill="white"/>
<path d="M765.546 91.6777V114.011H771.067V119.428H743.359C741.619 119.428 739.989 119.105 738.463 118.449C736.932 117.782 735.593 116.881 734.442 115.74C733.302 114.605 732.4 113.271 731.734 111.74C731.078 110.214 730.755 108.584 730.755 106.844V96.7402H736.213V106.844C736.213 107.844 736.39 108.782 736.755 109.657C737.13 110.521 737.64 111.277 738.296 111.928C738.947 112.568 739.703 113.074 740.567 113.449C741.442 113.824 742.369 114.011 743.359 114.011H760.088V91.6777H765.546ZM745.4 127.386C745.4 126.62 745.661 125.969 746.192 125.428C746.734 124.896 747.385 124.636 748.15 124.636C748.536 124.636 748.9 124.704 749.234 124.844C749.567 124.995 749.859 125.199 750.109 125.449C750.369 125.699 750.572 125.99 750.713 126.324C750.848 126.657 750.921 127.011 750.921 127.386C750.921 127.771 750.848 128.136 750.713 128.469C750.572 128.803 750.369 129.094 750.109 129.344C749.859 129.605 749.567 129.808 749.234 129.949C748.9 130.1 748.536 130.178 748.15 130.178C747.775 130.178 747.411 130.1 747.067 129.949C746.734 129.808 746.442 129.605 746.192 129.344C745.953 129.094 745.76 128.803 745.609 128.469C745.468 128.136 745.4 127.771 745.4 127.386Z" fill="white"/>
<path d="M779.627 80.9072V114.011H785.148V119.428H768.648V114.011H774.19V80.9072H779.627Z" fill="white"/>
<path d="M793.719 80.9072V96.5114C794.635 95.7926 795.615 95.1312 796.656 94.5322C797.708 93.9385 798.792 93.4281 799.906 93.0114C801.031 92.5843 802.167 92.251 803.323 92.0114C804.474 91.7614 805.604 91.6364 806.719 91.6364C808.302 91.6364 809.802 91.8656 811.219 92.3239C812.646 92.7822 813.896 93.5322 814.969 94.5739C816.036 95.6051 816.885 96.9385 817.51 98.5739C818.146 100.215 818.469 102.22 818.469 104.595V114.011H823.99V119.428H782.74V114.011H788.302V80.9072H793.719ZM806.719 97.0739C805.745 97.0739 804.745 97.1937 803.719 97.4281C802.703 97.652 801.708 97.9645 800.74 98.3656C799.781 98.7562 798.875 99.2197 798.031 99.7614C797.182 100.303 796.437 100.897 795.802 101.532C795.161 102.157 794.656 102.819 794.281 103.511C793.906 104.194 793.719 104.876 793.719 105.553V114.011H813.031V104.595C813.031 103.22 812.865 102.063 812.531 101.116C812.198 100.173 811.74 99.402 811.156 98.8031C810.583 98.1937 809.917 97.7562 809.156 97.4906C808.391 97.2145 807.578 97.0739 806.719 97.0739Z" fill="white"/>
<path d="M833.035 80.9072V110.553C833.035 111.777 832.795 112.928 832.326 114.011C831.868 115.084 831.233 116.022 830.431 116.824C829.623 117.631 828.681 118.272 827.597 118.741C826.514 119.199 825.358 119.428 824.139 119.428H821.576V114.011H824.139C824.608 114.011 825.061 113.923 825.493 113.741C825.92 113.563 826.29 113.319 826.597 113.011C826.915 112.694 827.165 112.324 827.347 111.907C827.524 111.48 827.618 111.027 827.618 110.553V80.9072H833.035Z" fill="white"/>
<path d="M844.462 80.9072V119.428H839.045V80.9072H844.462Z" fill="white"/>
<path d="M861.344 91.6362C864.662 91.6362 867.495 91.9227 869.844 92.4904C872.188 93.0477 874.104 93.8758 875.594 94.9696C877.094 96.0685 878.188 97.4227 878.886 99.0321C879.578 100.631 879.927 102.47 879.927 104.553V114.011H885.448V119.428H859.781V114.011H874.511V104.553C874.511 103.36 874.261 102.298 873.761 101.365C873.271 100.438 872.495 99.6519 871.427 99.0112C870.37 98.3758 869.011 97.8966 867.344 97.5737C865.688 97.2404 863.688 97.0737 861.344 97.0737V91.6362Z" fill="white"/>
<path d="M890.102 83.6781C890.102 83.2926 890.17 82.9281 890.31 82.5947C890.446 82.2614 890.644 81.9697 890.894 81.7197C891.154 81.4593 891.456 81.2562 891.79 81.1156C892.123 80.9801 892.482 80.9072 892.873 80.9072C893.248 80.9072 893.602 80.9801 893.935 81.1156C894.279 81.2562 894.571 81.4593 894.81 81.7197C895.06 81.9697 895.253 82.2614 895.394 82.5947C895.545 82.9281 895.623 83.2926 895.623 83.6781C895.623 84.4437 895.352 85.0947 894.81 85.6364C894.279 86.1676 893.633 86.4281 892.873 86.4281C892.482 86.4281 892.123 86.3604 891.79 86.2197C891.456 86.0687 891.154 85.876 890.894 85.6364C890.644 85.3864 890.446 85.0947 890.31 84.7614C890.17 84.4176 890.102 84.0531 890.102 83.6781ZM897.748 91.6781V114.011H903.29V119.428H883.04V114.011H892.331V91.6781H897.748Z" fill="white"/>
<path d="M927.966 119.428H900.883V114.011H906.424V104.074C906.424 102.313 906.742 100.673 907.383 99.157C908.034 97.6465 908.914 96.334 910.028 95.2195C911.153 94.0945 912.466 93.2195 913.966 92.5945C915.476 91.959 917.096 91.6361 918.82 91.6361C920.705 91.5945 922.768 92.1101 925.008 93.1778L922.841 98.1361C922.049 97.8028 921.31 97.5424 920.633 97.3445C919.966 97.1518 919.362 97.0632 918.82 97.0736C917.846 97.0736 916.935 97.2559 916.091 97.6153C915.258 97.9643 914.518 98.459 913.883 99.0945C913.258 99.7195 912.763 100.459 912.403 101.303C912.039 102.152 911.862 103.074 911.862 104.074V114.011H927.966V119.428Z" fill="white"/>
<path d="M204.966 205.491C204.966 204.074 205.159 202.511 205.55 200.803C205.951 199.084 206.581 197.178 207.446 195.095L211.675 196.741C211.034 198.397 210.555 199.907 210.237 201.282C209.93 202.647 209.779 203.907 209.779 205.074C209.779 207.933 210.862 210.168 213.029 211.782C215.206 213.407 218.055 214.22 221.571 214.22C225.373 214.22 228.31 213.48 230.383 212.011C232.451 210.553 233.852 208.308 234.591 205.282C235.341 202.256 235.617 198.376 235.425 193.636L234.3 163.532H239.175L240.175 194.866C240.3 198.157 240.091 201.261 239.55 204.178C239.019 207.079 238.06 209.642 236.675 211.866C235.3 214.1 233.367 215.85 230.883 217.116C228.394 218.392 225.237 219.032 221.404 219.032C219.331 219.032 217.321 218.751 215.362 218.199C213.404 217.657 211.638 216.834 210.071 215.741C208.513 214.657 207.269 213.261 206.341 211.553C205.425 209.855 204.966 207.834 204.966 205.491Z" fill="white"/>
<path d="M261.045 205.72C257.878 205.72 255.472 205.376 253.837 204.678C252.196 203.97 251.066 202.876 250.441 201.386C249.816 199.902 249.462 197.985 249.378 195.636L248.212 163.532H253.024L254.191 193.761C254.274 195.678 254.462 197.157 254.753 198.199C255.045 199.23 255.701 199.938 256.733 200.324C257.774 200.715 259.41 200.907 261.649 200.907C262.467 200.907 263.055 201.136 263.42 201.595C263.795 202.043 263.983 202.574 263.983 203.199C263.983 203.824 263.701 204.402 263.149 204.928C262.608 205.454 261.904 205.72 261.045 205.72Z" fill="white"/>
<path d="M261.052 205.72L261.635 200.907C263.703 200.907 265.677 200.735 267.552 200.386C269.437 200.027 271.182 199.532 272.781 198.907C271.848 197.824 270.791 196.714 269.614 195.574C268.447 194.438 267.156 193.36 265.739 192.345C265.499 192.152 265.265 191.803 265.031 191.303C264.807 190.792 264.614 190.261 264.447 189.72C264.291 189.167 264.218 188.751 264.218 188.47C264.218 187.886 264.583 187.188 265.322 186.365C266.072 185.548 267.072 184.756 268.322 183.99C269.572 183.23 270.994 182.595 272.593 182.095C274.203 181.584 275.869 181.324 277.593 181.324C279.828 181.324 281.64 181.657 283.031 182.324C284.416 182.98 285.432 183.824 286.072 184.865C286.708 185.907 287.031 187.011 287.031 188.178C287.031 190.095 286.479 192.006 285.385 193.907C284.302 195.798 282.802 197.527 280.885 199.095C282.562 199.72 284.374 200.178 286.322 200.47C288.281 200.761 290.239 200.907 292.197 200.907C293.015 200.907 293.614 201.136 293.989 201.595C294.364 202.042 294.552 202.574 294.552 203.199C294.552 203.824 294.27 204.402 293.718 204.928C293.177 205.454 292.473 205.72 291.614 205.72C289.031 205.72 286.374 205.423 283.656 204.824C280.947 204.214 278.536 203.282 276.427 202.032C274.27 203.157 271.89 204.053 269.281 204.72C266.682 205.386 263.937 205.72 261.052 205.72ZM268.447 188.761C269.932 190.011 271.328 191.235 272.635 192.428C273.937 193.626 275.395 195.084 277.01 196.803C278.687 195.709 280.01 194.527 280.968 193.261C281.927 191.985 282.406 190.72 282.406 189.47C282.406 188.694 281.979 187.938 281.135 187.199C280.302 186.449 278.828 186.074 276.718 186.074C275.385 186.074 273.906 186.334 272.281 186.845C270.656 187.345 269.374 187.985 268.447 188.761ZM277.177 175.261C276.354 175.261 275.661 174.98 275.093 174.407C274.52 173.839 274.239 173.167 274.239 172.386C274.239 171.61 274.52 170.928 275.093 170.345C275.661 169.751 276.354 169.449 277.177 169.449C277.953 169.449 278.624 169.751 279.197 170.345C279.765 170.928 280.052 171.61 280.052 172.386C280.052 173.167 279.765 173.839 279.197 174.407C278.624 174.98 277.953 175.261 277.177 175.261Z" fill="white"/>
<path d="M291.611 205.72L292.195 200.907C293.445 200.907 294.455 200.824 295.236 200.657C296.028 200.48 296.684 200.027 297.215 199.303C297.742 198.584 298.242 197.438 298.715 195.866C299.184 194.298 299.736 192.11 300.361 189.303L304.757 190.532C304.518 191.548 304.242 192.741 303.924 194.116C303.617 195.48 303.465 196.709 303.465 197.803C303.465 198.777 303.83 199.543 304.57 200.095C305.32 200.636 306.674 200.907 308.632 200.907C309.799 200.907 310.747 200.813 311.486 200.616C312.236 200.423 312.851 199.959 313.34 199.22C313.84 198.47 314.283 197.282 314.674 195.657C315.059 194.032 315.471 191.777 315.903 188.886L320.361 189.699C320.236 190.407 320.08 191.272 319.903 192.282C319.736 193.298 319.59 194.303 319.465 195.303C319.351 196.303 319.299 197.136 319.299 197.803C319.299 198.345 319.424 198.866 319.674 199.366C319.934 199.855 320.45 200.235 321.215 200.511C321.976 200.777 323.117 200.907 324.632 200.907C326.309 200.907 327.658 200.574 328.674 199.907C329.7 199.241 330.215 197.897 330.215 195.866C330.215 194.423 329.867 192.569 329.174 190.303C328.492 188.027 327.721 185.777 326.861 183.553L331.632 181.782C332.09 183.074 332.554 184.511 333.028 186.095C333.497 187.678 333.887 189.256 334.195 190.824C334.512 192.381 334.674 193.751 334.674 194.928C334.674 198.569 333.768 201.277 331.965 203.053C330.174 204.834 327.715 205.72 324.59 205.72C322.434 205.72 320.742 205.433 319.507 204.866C318.268 204.298 317.382 203.407 316.84 202.199C315.893 203.647 314.768 204.595 313.465 205.053C312.158 205.496 310.309 205.72 307.924 205.72C307.101 205.72 306.226 205.621 305.299 205.428C304.382 205.235 303.533 204.855 302.757 204.282C301.976 203.715 301.372 202.866 300.945 201.741C299.929 203.449 298.663 204.543 297.153 205.011C295.653 205.48 293.804 205.72 291.611 205.72ZM316.882 173.449C316.059 173.449 315.367 173.173 314.799 172.616C314.242 172.048 313.965 171.366 313.965 170.574C313.965 169.798 314.242 169.116 314.799 168.532C315.367 167.949 316.059 167.657 316.882 167.657C317.674 167.657 318.346 167.949 318.903 168.532C319.471 169.116 319.757 169.798 319.757 170.574C319.757 171.366 319.471 172.048 318.903 172.616C318.346 173.173 317.674 173.449 316.882 173.449ZM312.903 179.907C312.08 179.907 311.387 179.626 310.82 179.053C310.247 178.485 309.965 177.813 309.965 177.032C309.965 176.256 310.247 175.574 310.82 174.991C311.387 174.397 312.08 174.095 312.903 174.095C313.679 174.095 314.351 174.397 314.924 174.991C315.492 175.574 315.778 176.256 315.778 177.032C315.778 177.813 315.492 178.485 314.924 179.053C314.351 179.626 313.679 179.907 312.903 179.907ZM320.882 179.907C320.059 179.907 319.367 179.626 318.799 179.053C318.226 178.485 317.945 177.813 317.945 177.032C317.945 176.256 318.226 175.574 318.799 174.991C319.367 174.397 320.059 174.095 320.882 174.095C321.658 174.095 322.33 174.397 322.903 174.991C323.471 175.574 323.757 176.256 323.757 177.032C323.757 177.813 323.471 178.485 322.903 179.053C322.33 179.626 321.658 179.907 320.882 179.907Z" fill="white"/>
<path d="M381.003 206.657C374.044 206.657 368.779 205.746 365.211 203.928C361.654 202.11 359.878 199.048 359.878 194.741C359.878 193.298 360.049 191.772 360.398 190.157C360.758 188.532 361.133 186.991 361.523 185.532L365.94 186.657C365.7 187.522 365.43 188.616 365.128 189.949C364.836 191.272 364.69 192.423 364.69 193.407C364.69 195.438 365.211 197.069 366.253 198.303C367.294 199.543 369.096 200.444 371.669 201.011C374.253 201.569 377.867 201.845 382.523 201.845C386.825 201.845 390.68 201.72 394.086 201.47C397.487 201.22 400.242 200.918 402.357 200.553C401.424 199.777 400.508 198.715 399.607 197.366C398.7 196.022 398.253 194.366 398.253 192.407C398.253 190.298 398.732 188.397 399.69 186.699C400.648 184.991 401.904 183.631 403.461 182.616C405.029 181.59 406.716 181.074 408.523 181.074C410.44 181.074 412.117 181.616 413.565 182.699C415.008 183.772 416.133 185.147 416.94 186.824C417.742 188.506 418.148 190.209 418.148 191.928C418.148 193.777 417.773 195.418 417.023 196.845C416.284 198.261 415.273 199.501 413.982 200.553C415.575 200.678 417.195 200.772 418.836 200.824C420.487 200.881 421.919 200.907 423.128 200.907C423.945 200.907 424.544 201.136 424.919 201.595C425.294 202.043 425.482 202.574 425.482 203.199C425.482 203.824 425.2 204.402 424.648 204.928C424.107 205.454 423.404 205.72 422.544 205.72C417.503 205.72 412.763 205.074 408.336 203.782C407.711 204.022 407.049 204.235 406.357 204.428C405.174 204.777 403.299 205.126 400.732 205.47C398.174 205.829 395.19 206.116 391.773 206.324C388.357 206.543 384.763 206.657 381.003 206.657ZM403.065 192.511C403.065 194.084 403.565 195.407 404.565 196.491C405.565 197.563 406.669 198.428 407.878 199.095C409.404 198.386 410.695 197.48 411.753 196.366C412.805 195.256 413.336 193.897 413.336 192.282C413.336 191.423 413.117 190.501 412.69 189.511C412.258 188.511 411.659 187.657 410.898 186.949C410.133 186.241 409.279 185.886 408.336 185.886C407.404 185.886 406.534 186.22 405.732 186.886C404.924 187.553 404.279 188.397 403.794 189.407C403.305 190.423 403.065 191.459 403.065 192.511ZM408.003 175.032C407.18 175.032 406.487 174.751 405.919 174.178C405.346 173.61 405.065 172.938 405.065 172.157C405.065 171.381 405.346 170.699 405.919 170.116C406.487 169.522 407.18 169.22 408.003 169.22C408.779 169.22 409.45 169.522 410.023 170.116C410.591 170.699 410.878 171.381 410.878 172.157C410.878 172.938 410.591 173.61 410.023 174.178C409.45 174.751 408.779 175.032 408.003 175.032Z" fill="white"/>
<path d="M422.532 205.719L423.115 200.907C425.376 200.907 427.162 200.824 428.47 200.657C429.787 200.48 430.72 200.032 431.261 199.324C431.813 198.615 432.095 197.464 432.095 195.865C432.095 194.423 431.746 192.568 431.053 190.303C430.371 188.027 429.6 185.777 428.74 183.553L433.511 181.782C434.011 183.074 434.48 184.511 434.928 186.094C435.386 187.678 435.766 189.256 436.074 190.824C436.391 192.381 436.553 193.751 436.553 194.928C436.553 198.876 435.454 201.657 433.261 203.282C431.079 204.907 427.501 205.719 422.532 205.719ZM435.324 175.678C434.501 175.678 433.808 175.396 433.24 174.824C432.668 174.256 432.386 173.584 432.386 172.803C432.386 172.027 432.668 171.344 433.24 170.761C433.808 170.167 434.501 169.865 435.324 169.865C436.1 169.865 436.772 170.167 437.345 170.761C437.912 171.344 438.199 172.027 438.199 172.803C438.199 173.584 437.912 174.256 437.345 174.824C436.772 175.396 436.1 175.678 435.324 175.678ZM427.282 175.678C426.459 175.678 425.766 175.396 425.199 174.824C424.626 174.256 424.345 173.584 424.345 172.803C424.345 172.027 424.626 171.344 425.199 170.761C425.766 170.167 426.459 169.865 427.282 169.865C428.058 169.865 428.73 170.167 429.303 170.761C429.871 171.344 430.157 172.027 430.157 172.803C430.157 173.584 429.871 174.256 429.303 174.824C428.73 175.396 428.058 175.678 427.282 175.678Z" fill="white"/>
<path d="M457.133 205.72C453.966 205.72 451.56 205.376 449.924 204.678C448.284 203.97 447.154 202.876 446.529 201.386C445.904 199.902 445.549 197.985 445.466 195.636L444.299 163.532H449.112L450.279 193.761C450.362 195.678 450.549 197.157 450.841 198.199C451.133 199.23 451.789 199.938 452.82 200.324C453.862 200.715 455.497 200.907 457.737 200.907C458.555 200.907 459.143 201.136 459.508 201.595C459.883 202.043 460.07 202.574 460.07 203.199C460.07 203.824 459.789 204.402 459.237 204.928C458.695 205.454 457.992 205.72 457.133 205.72Z" fill="white"/>
<path d="M457.139 205.72L457.722 200.907C458.472 200.907 459.191 200.907 459.889 200.907C460.597 200.907 461.306 200.886 462.014 200.845C462.165 197.918 462.629 195.241 463.41 192.824C464.202 190.397 465.202 188.303 466.41 186.553C467.618 184.793 468.92 183.428 470.327 182.47C471.743 181.511 473.139 181.032 474.514 181.032C476.431 181.032 478.025 181.845 479.306 183.47C480.597 185.084 481.243 187.256 481.243 189.991C481.243 191.715 480.972 193.428 480.431 195.136C479.889 196.834 478.853 198.324 477.327 199.616C478.879 200.006 480.493 200.319 482.16 200.553C483.827 200.793 485.597 200.907 487.472 200.907C488.29 200.907 488.889 201.136 489.264 201.595C489.639 202.043 489.827 202.574 489.827 203.199C489.827 203.824 489.545 204.402 488.993 204.928C488.452 205.454 487.749 205.72 486.889 205.72C485.556 205.72 484.045 205.621 482.368 205.428C483.269 206.761 483.769 208.157 483.868 209.616C483.962 211.084 483.686 212.47 483.035 213.761C482.394 215.053 481.415 216.105 480.097 216.928C478.79 217.746 477.144 218.157 475.16 218.157C471.754 218.157 468.832 217.084 466.389 214.949C463.941 212.824 462.504 209.605 462.077 205.303C461.285 205.428 460.462 205.522 459.618 205.595C458.785 205.678 457.957 205.72 457.139 205.72ZM474.097 185.824C473.316 185.824 472.379 186.459 471.285 187.72C470.186 188.97 469.186 190.694 468.285 192.886C467.379 195.069 466.853 197.605 466.702 200.491C468.577 200.23 470.243 199.756 471.702 199.074C473.17 198.381 474.327 197.36 475.16 196.011C476.004 194.668 476.431 192.84 476.431 190.532C476.431 189.938 476.358 189.277 476.222 188.553C476.097 187.834 475.853 187.199 475.493 186.657C475.144 186.105 474.681 185.824 474.097 185.824ZM475.264 213.345C476.275 213.345 477.269 213.053 478.243 212.47C479.228 211.886 479.722 210.808 479.722 209.241C479.722 208.267 479.478 207.376 478.993 206.574C478.504 205.767 477.65 205.116 476.431 204.616C475.222 204.105 473.504 203.845 471.285 203.845C470.66 203.845 469.962 203.897 469.202 203.991C468.436 204.09 467.66 204.235 466.868 204.428C467.077 206.345 467.493 207.886 468.118 209.053C468.743 210.23 469.472 211.136 470.306 211.761C471.15 212.386 472.004 212.803 472.868 213.011C473.728 213.23 474.525 213.345 475.264 213.345Z" fill="white"/>
<path d="M486.878 205.72L487.399 200.907C489.633 200.907 491.196 200.694 492.086 200.261C492.987 199.834 493.508 199.084 493.649 198.011C493.784 196.928 493.815 195.397 493.732 193.407L492.628 163.532H497.378L498.545 192.866C498.67 195.647 498.482 197.991 497.982 199.907C497.493 201.824 496.399 203.277 494.69 204.261C492.993 205.235 490.388 205.72 486.878 205.72Z" fill="white"/>
<path d="M507.524 205.428L506.358 163.532H511.108L512.274 205.428H507.524Z" fill="white"/>
<path d="M559.493 206.657C552.535 206.657 547.269 205.746 543.702 203.928C540.144 202.11 538.368 199.048 538.368 194.741C538.368 193.298 538.54 191.772 538.889 190.157C539.249 188.532 539.624 186.991 540.014 185.532L544.431 186.657C544.191 187.522 543.92 188.616 543.618 189.949C543.327 191.272 543.181 192.423 543.181 193.407C543.181 195.438 543.702 197.069 544.743 198.303C545.785 199.543 547.587 200.444 550.16 201.011C552.743 201.569 556.358 201.845 561.014 201.845C564.889 201.845 568.077 201.699 570.577 201.407C573.087 201.116 575.04 200.652 576.431 200.011C577.816 199.36 578.764 198.522 579.264 197.491C579.775 196.449 580.014 195.188 579.973 193.699L578.868 163.532H583.618L584.785 193.157C584.868 195.241 584.608 197.116 584.014 198.782C583.431 200.438 582.254 201.855 580.493 203.032C578.743 204.199 576.181 205.095 572.806 205.72C569.441 206.345 565.004 206.657 559.493 206.657ZM557.973 193.47L556.868 189.761C559.327 189.095 561.082 188.563 562.139 188.157C563.191 187.741 563.723 187.298 563.723 186.824C563.723 186.397 563.493 186.001 563.035 185.636C562.587 185.261 562.082 184.876 561.514 184.47C560.957 184.053 560.452 183.574 559.993 183.032C559.545 182.48 559.327 181.813 559.327 181.032C559.327 180.006 559.811 178.886 560.785 177.678C561.769 176.47 563.707 175.157 566.598 173.741L568.41 177.095C566.618 177.959 565.295 178.694 564.452 179.303C563.618 179.902 563.202 180.438 563.202 180.907C563.202 181.256 563.42 181.631 563.868 182.032C564.311 182.423 564.816 182.855 565.389 183.324C565.957 183.782 566.462 184.319 566.91 184.928C567.368 185.527 567.598 186.241 567.598 187.074C567.598 187.813 567.358 188.532 566.889 189.241C566.415 189.938 565.493 190.631 564.118 191.324C562.754 192.006 560.707 192.72 557.973 193.47Z" fill="white"/>
<path d="M587.116 219.032L585.428 214.574C589.22 213.324 592.178 211.834 594.303 210.116C596.439 208.392 597.949 206.584 598.824 204.699C599.699 202.798 600.137 200.949 600.137 199.157C600.137 197.241 599.709 195.298 598.866 193.324C598.032 191.34 597.105 189.47 596.095 187.72L600.387 185.532C601.48 187.616 602.407 189.616 603.157 191.532C603.918 193.449 604.517 195.131 604.949 196.574C605.501 198.256 606.22 199.402 607.095 200.011C607.97 200.61 609.168 200.907 610.699 200.907C611.517 200.907 612.116 201.136 612.491 201.595C612.866 202.043 613.053 202.574 613.053 203.199C613.053 203.824 612.772 204.402 612.22 204.928C611.678 205.454 610.975 205.72 610.116 205.72C608.626 205.72 607.387 205.48 606.387 205.011C605.397 204.543 604.584 203.918 603.949 203.136C603.558 205.334 602.741 207.324 601.491 209.116C600.241 210.918 598.772 212.496 597.095 213.845C595.413 215.188 593.689 216.293 591.928 217.157C590.163 218.017 588.558 218.642 587.116 219.032Z" fill="white"/>
<path d="M610.115 205.719L610.698 200.907C612.958 200.907 614.745 200.824 616.052 200.657C617.37 200.48 618.302 200.032 618.844 199.324C619.396 198.615 619.677 197.464 619.677 195.865C619.677 194.423 619.328 192.568 618.635 190.303C617.953 188.027 617.182 185.777 616.323 183.553L621.094 181.782C621.594 183.074 622.062 184.511 622.51 186.094C622.969 187.678 623.349 189.256 623.656 190.824C623.974 192.381 624.135 193.751 624.135 194.928C624.135 198.876 623.036 201.657 620.844 203.282C618.661 204.907 615.083 205.719 610.115 205.719ZM622.906 175.678C622.083 175.678 621.391 175.396 620.823 174.824C620.25 174.256 619.969 173.584 619.969 172.803C619.969 172.027 620.25 171.344 620.823 170.761C621.391 170.167 622.083 169.865 622.906 169.865C623.682 169.865 624.354 170.167 624.927 170.761C625.495 171.344 625.781 172.027 625.781 172.803C625.781 173.584 625.495 174.256 624.927 174.824C624.354 175.396 623.682 175.678 622.906 175.678ZM614.865 175.678C614.042 175.678 613.349 175.396 612.781 174.824C612.208 174.256 611.927 173.584 611.927 172.803C611.927 172.027 612.208 171.344 612.781 170.761C613.349 170.167 614.042 169.865 614.865 169.865C615.641 169.865 616.312 170.167 616.885 170.761C617.453 171.344 617.74 172.027 617.74 172.803C617.74 173.584 617.453 174.256 616.885 174.824C616.312 175.396 615.641 175.678 614.865 175.678Z" fill="white"/>
<path d="M651.578 218.928L650.537 214.116C652.953 213.793 655.167 213.329 657.182 212.72C659.193 212.121 660.922 211.272 662.37 210.178C663.828 209.079 664.901 207.595 665.599 205.72H661.849C660.083 205.72 658.453 205.475 656.953 204.991C655.453 204.506 654.235 203.715 653.307 202.616C652.391 201.522 651.932 200.09 651.932 198.324C651.932 196.173 652.36 194.131 653.224 192.199C654.083 190.272 655.255 188.699 656.745 187.491C658.229 186.272 659.912 185.657 661.787 185.657C664.495 185.657 666.735 186.845 668.516 189.22C670.292 191.584 671.182 195.209 671.182 200.095C671.182 200.36 671.182 200.631 671.182 200.907H676.453C677.271 200.907 677.87 201.136 678.245 201.595C678.62 202.043 678.807 202.574 678.807 203.199C678.807 203.824 678.526 204.402 677.974 204.928C677.432 205.454 676.729 205.72 675.87 205.72H670.474C668.474 213.303 662.172 217.704 651.578 218.928ZM664.078 200.907H666.537C666.578 200.522 666.599 200.131 666.599 199.741C666.599 197.074 666.104 194.866 665.12 193.116C664.146 191.355 662.88 190.47 661.328 190.47C660.505 190.47 659.729 190.782 658.995 191.407C658.271 192.032 657.693 192.876 657.266 193.928C656.849 194.985 656.641 196.136 656.641 197.386C656.641 198.761 657.25 199.694 658.474 200.178C659.708 200.668 661.578 200.907 664.078 200.907Z" fill="white"/>
<path d="M675.868 205.72L676.389 200.907C680.415 200.907 684.326 200.313 688.118 199.116C691.92 197.923 695.389 196.235 698.514 194.053C696.983 192.72 695.118 191.647 692.91 190.824C690.701 190.006 688.264 189.595 685.597 189.595C684.623 189.595 683.764 189.647 683.014 189.741C682.274 189.84 681.379 190.006 680.326 190.241L679.389 185.782C681.582 185.116 683.649 184.782 685.597 184.782C687.639 184.782 689.478 185.027 691.118 185.511C692.754 186.001 694.248 186.595 695.597 187.303C696.957 188.011 698.233 188.72 699.431 189.428C700.623 190.126 701.785 190.715 702.91 191.199C704.045 191.688 705.222 191.928 706.431 191.928H707.66L708.077 196.157C706.077 196.157 704.254 196.485 702.618 197.136C700.978 197.777 699.327 198.574 697.66 199.532C695.993 200.491 694.17 201.444 692.201 202.386C690.228 203.319 687.931 204.11 685.306 204.761C682.691 205.402 679.545 205.72 675.868 205.72ZM692.243 216.324C691.42 216.324 690.728 216.037 690.16 215.47C689.587 214.912 689.306 214.241 689.306 213.449C689.306 212.668 689.587 211.991 690.16 211.407C690.728 210.824 691.42 210.532 692.243 210.532C693.019 210.532 693.691 210.824 694.264 211.407C694.832 211.991 695.118 212.668 695.118 213.449C695.118 214.241 694.832 214.912 694.264 215.47C693.691 216.037 693.019 216.324 692.243 216.324Z" fill="white"/>
<path d="M710.646 219.032L708.958 214.574C712.75 213.324 715.708 211.834 717.833 210.116C719.969 208.392 721.479 206.584 722.354 204.699C723.229 202.798 723.667 200.949 723.667 199.157C723.667 197.241 723.24 195.298 722.396 193.324C721.562 191.34 720.635 189.47 719.625 187.72L723.917 185.532C725.01 187.616 725.937 189.616 726.687 191.532C727.448 193.449 728.047 195.131 728.479 196.574C729.031 198.256 729.75 199.402 730.625 200.011C731.5 200.61 732.698 200.907 734.229 200.907C735.047 200.907 735.646 201.136 736.021 201.595C736.396 202.043 736.583 202.574 736.583 203.199C736.583 203.824 736.302 204.402 735.75 204.928C735.208 205.454 734.505 205.72 733.646 205.72C732.156 205.72 730.917 205.48 729.917 205.011C728.927 204.543 728.115 203.918 727.479 203.136C727.088 205.334 726.271 207.324 725.021 209.116C723.771 210.918 722.302 212.496 720.625 213.845C718.943 215.188 717.219 216.293 715.458 217.157C713.693 218.017 712.088 218.642 710.646 219.032Z" fill="white"/>
<path d="M733.645 205.72L734.228 200.907C735.322 200.907 736.191 200.678 736.832 200.22C737.483 199.751 738.108 198.98 738.707 197.907C739.316 196.824 740.092 195.345 741.04 193.47C742.29 190.959 743.546 189.042 744.811 187.72C746.087 186.386 747.301 185.47 748.457 184.97C749.608 184.459 750.655 184.199 751.603 184.199C752.895 184.199 754.046 184.485 755.061 185.053C756.072 185.61 757.02 186.569 757.895 187.928C758.78 189.277 759.712 191.126 760.686 193.47C761.587 195.652 762.4 197.272 763.124 198.324C763.842 199.381 764.608 200.074 765.415 200.407C766.217 200.74 767.129 200.907 768.145 200.907C768.962 200.907 769.551 201.136 769.915 201.595C770.29 202.042 770.478 202.574 770.478 203.199C770.478 203.824 770.207 204.402 769.665 204.928C769.124 205.454 768.421 205.72 767.561 205.72C766.03 205.72 764.629 205.475 763.353 204.99C762.087 204.506 761.082 203.751 760.332 202.72C759.592 204.053 758.665 205.027 757.54 205.636C756.426 206.246 755.228 206.553 753.936 206.553C751.988 206.553 749.999 205.933 747.957 204.699C745.926 203.464 744.207 201.834 742.79 199.803C741.775 201.595 740.811 202.917 739.895 203.761C738.978 204.595 738.02 205.131 737.02 205.365C736.02 205.6 734.895 205.72 733.645 205.72ZM745.02 195.345C746.353 197.569 747.837 199.199 749.478 200.24C751.129 201.272 752.603 201.782 753.895 201.782C755.254 201.782 756.254 201.298 756.895 200.324C757.546 199.355 757.52 197.985 756.811 196.22C756.353 195.042 755.863 193.886 755.353 192.761C754.837 191.626 754.249 190.694 753.582 189.97C752.926 189.251 752.15 188.886 751.249 188.886C750.384 188.928 749.441 189.402 748.415 190.303C747.4 191.194 746.27 192.876 745.02 195.345Z" fill="white"/>
<path d="M767.548 205.72L768.068 200.907C770.303 200.907 771.865 200.694 772.756 200.261C773.657 199.834 774.178 199.084 774.318 198.011C774.454 196.928 774.485 195.397 774.402 193.407L773.298 163.532H778.048L779.214 192.866C779.339 195.647 779.152 197.991 778.652 199.907C778.162 201.824 777.068 203.277 775.36 204.261C773.662 205.235 771.058 205.72 767.548 205.72Z" fill="white"/>
<path d="M788.194 205.428L787.028 163.532H791.778L792.944 205.428H788.194Z" fill="white"/>
</g>
</g>
<defs>
<linearGradient id="paint0_linear_13_1491" x1="499.65" y1="264.529" x2="499.65" y2="26.3108" gradientUnits="userSpaceOnUse">
<stop/>
<stop offset="0.00390625" stop-color="#010100"/>
<stop offset="0.0078125" stop-color="#010100"/>
<stop offset="0.0117188" stop-color="#020200"/>
<stop offset="0.015625" stop-color="#030200"/>
<stop offset="0.0195312" stop-color="#040300"/>
<stop offset="0.0234375" stop-color="#040301"/>
<stop offset="0.0273438" stop-color="#050401"/>
<stop offset="0.03125" stop-color="#060401"/>
<stop offset="0.0351562" stop-color="#070501"/>
<stop offset="0.0390625" stop-color="#070501"/>
<stop offset="0.0429688" stop-color="#080601"/>
<stop offset="0.046875" stop-color="#090701"/>
<stop offset="0.0507812" stop-color="#0A0701"/>
<stop offset="0.0546875" stop-color="#0A0801"/>
<stop offset="0.0585938" stop-color="#0B0801"/>
<stop offset="0.0625" stop-color="#0C0901"/>
<stop offset="0.0664062" stop-color="#0D0901"/>
<stop offset="0.0703125" stop-color="#0D0A02"/>
<stop offset="0.0742188" stop-color="#0E0A02"/>
<stop offset="0.078125" stop-color="#0F0B02"/>
<stop offset="0.0820312" stop-color="#100B02"/>
<stop offset="0.0859375" stop-color="#100C02"/>
<stop offset="0.0898438" stop-color="#110C02"/>
<stop offset="0.09375" stop-color="#120D02"/>
<stop offset="0.0976562" stop-color="#130E02"/>
<stop offset="0.101562" stop-color="#130E02"/>
<stop offset="0.105469" stop-color="#140F02"/>
<stop offset="0.109375" stop-color="#150F02"/>
<stop offset="0.113281" stop-color="#161002"/>
<stop offset="0.117188" stop-color="#161003"/>
<stop offset="0.121094" stop-color="#171103"/>
<stop offset="0.125" stop-color="#181103"/>
<stop offset="0.128906" stop-color="#191203"/>
<stop offset="0.132812" stop-color="#191203"/>
<stop offset="0.136719" stop-color="#1A1303"/>
<stop offset="0.140625" stop-color="#1B1403"/>
<stop offset="0.144531" stop-color="#1C1403"/>
<stop offset="0.148438" stop-color="#1C1503"/>
<stop offset="0.152344" stop-color="#1D1503"/>
<stop offset="0.15625" stop-color="#1E1603"/>
<stop offset="0.160156" stop-color="#1F1604"/>
<stop offset="0.164062" stop-color="#1F1704"/>
<stop offset="0.167969" stop-color="#201704"/>
<stop offset="0.171875" stop-color="#211804"/>
<stop offset="0.175781" stop-color="#221804"/>
<stop offset="0.179688" stop-color="#221904"/>
<stop offset="0.183594" stop-color="#231A04"/>
<stop offset="0.1875" stop-color="#241A04"/>
<stop offset="0.191406" stop-color="#251B04"/>
<stop offset="0.195312" stop-color="#251B04"/>
<stop offset="0.199219" stop-color="#261C04"/>
<stop offset="0.203125" stop-color="#271C04"/>
<stop offset="0.207031" stop-color="#281D05"/>
<stop offset="0.210938" stop-color="#281D05"/>
<stop offset="0.214844" stop-color="#291E05"/>
<stop offset="0.21875" stop-color="#2A1E05"/>
<stop offset="0.222656" stop-color="#2B1F05"/>
<stop offset="0.226562" stop-color="#2B1F05"/>
<stop offset="0.230469" stop-color="#2C2005"/>
<stop offset="0.234375" stop-color="#2D2105"/>
<stop offset="0.238281" stop-color="#2E2105"/>
<stop offset="0.242188" stop-color="#2E2205"/>
<stop offset="0.246094" stop-color="#2F2205"/>
<stop offset="0.25" stop-color="#302305"/>
<stop offset="0.253906" stop-color="#302306"/>
<stop offset="0.257812" stop-color="#312406"/>
<stop offset="0.261719" stop-color="#322406"/>
<stop offset="0.265625" stop-color="#332506"/>
<stop offset="0.269531" stop-color="#332506"/>
<stop offset="0.273438" stop-color="#342606"/>
<stop offset="0.277344" stop-color="#352706"/>
<stop offset="0.28125" stop-color="#362706"/>
<stop offset="0.285156" stop-color="#362806"/>
<stop offset="0.289062" stop-color="#372806"/>
<stop offset="0.292969" stop-color="#382906"/>
<stop offset="0.296875" stop-color="#392907"/>
<stop offset="0.300781" stop-color="#392A07"/>
<stop offset="0.304688" stop-color="#3A2A07"/>
<stop offset="0.308594" stop-color="#3B2B07"/>
<stop offset="0.3125" stop-color="#3C2B07"/>
<stop offset="0.316406" stop-color="#3C2C07"/>
<stop offset="0.320312" stop-color="#3D2D07"/>
<stop offset="0.324219" stop-color="#3E2D07"/>
<stop offset="0.328125" stop-color="#3F2E07"/>
<stop offset="0.332031" stop-color="#3F2E07"/>
<stop offset="0.335938" stop-color="#402F07"/>
<stop offset="0.339844" stop-color="#412F07"/>
<stop offset="0.34375" stop-color="#423008"/>
<stop offset="0.347656" stop-color="#423008"/>
<stop offset="0.351562" stop-color="#433108"/>
<stop offset="0.355469" stop-color="#443108"/>
<stop offset="0.359375" stop-color="#453208"/>
<stop offset="0.363281" stop-color="#453208"/>
<stop offset="0.367188" stop-color="#463308"/>
<stop offset="0.371094" stop-color="#473408"/>
<stop offset="0.375" stop-color="#483408"/>
<stop offset="0.378906" stop-color="#483508"/>
<stop offset="0.382812" stop-color="#493508"/>
<stop offset="0.386719" stop-color="#4A3609"/>
<stop offset="0.390625" stop-color="#4B3609"/>
<stop offset="0.394531" stop-color="#4B3709"/>
<stop offset="0.398438" stop-color="#4C3709"/>
<stop offset="0.402344" stop-color="#4D3809"/>
<stop offset="0.40625" stop-color="#4E3809"/>
<stop offset="0.410156" stop-color="#4E3909"/>
<stop offset="0.414062" stop-color="#4F3A09"/>
<stop offset="0.417969" stop-color="#503A09"/>
<stop offset="0.421875" stop-color="#513B09"/>
<stop offset="0.425781" stop-color="#513B09"/>
<stop offset="0.429688" stop-color="#523C09"/>
<stop offset="0.433594" stop-color="#533C0A"/>
<stop offset="0.4375" stop-color="#543D0A"/>
<stop offset="0.441406" stop-color="#543D0A"/>
<stop offset="0.445312" stop-color="#553E0A"/>
<stop offset="0.449219" stop-color="#563E0A"/>
<stop offset="0.453125" stop-color="#573F0A"/>
<stop offset="0.457031" stop-color="#57400A"/>
<stop offset="0.460938" stop-color="#58400A"/>
<stop offset="0.464844" stop-color="#59410A"/>
<stop offset="0.46875" stop-color="#5A410A"/>
<stop offset="0.472656" stop-color="#5A420A"/>
<stop offset="0.476562" stop-color="#5B420A"/>
<stop offset="0.480469" stop-color="#5C430B"/>
<stop offset="0.484375" stop-color="#5D430B"/>
<stop offset="0.488281" stop-color="#5D440B"/>
<stop offset="0.492188" stop-color="#5E440B"/>
<stop offset="0.496094" stop-color="#5F450B"/>
<stop offset="0.5" stop-color="#5F450B"/>
<stop offset="0.503906" stop-color="#60460B"/>
<stop offset="0.507812" stop-color="#61470B"/>
<stop offset="0.511719" stop-color="#62470B"/>
<stop offset="0.515625" stop-color="#62480B"/>
<stop offset="0.519531" stop-color="#63480B"/>
<stop offset="0.523437" stop-color="#64490C"/>
<stop offset="0.527344" stop-color="#65490C"/>
<stop offset="0.53125" stop-color="#654A0C"/>
<stop offset="0.535156" stop-color="#664A0C"/>
<stop offset="0.539063" stop-color="#674B0C"/>
<stop offset="0.542969" stop-color="#684B0C"/>
<stop offset="0.546875" stop-color="#684C0C"/>
<stop offset="0.550781" stop-color="#694D0C"/>
<stop offset="0.554688" stop-color="#6A4D0C"/>
<stop offset="0.558594" stop-color="#6B4E0C"/>
<stop offset="0.5625" stop-color="#6B4E0C"/>
<stop offset="0.566406" stop-color="#6C4F0C"/>
<stop offset="0.570312" stop-color="#6D4F0D"/>
<stop offset="0.574219" stop-color="#6E500D"/>
<stop offset="0.578125" stop-color="#6E500D"/>
<stop offset="0.582031" stop-color="#6F510D"/>
<stop offset="0.585937" stop-color="#70510D"/>
<stop offset="0.589844" stop-color="#71520D"/>
<stop offset="0.59375" stop-color="#71530D"/>
<stop offset="0.597656" stop-color="#72530D"/>
<stop offset="0.601563" stop-color="#73540D"/>
<stop offset="0.605469" stop-color="#74540D"/>
<stop offset="0.609375" stop-color="#74550D"/>
<stop offset="0.613281" stop-color="#75550D"/>
<stop offset="0.617188" stop-color="#76560E"/>
<stop offset="0.621094" stop-color="#77560E"/>
<stop offset="0.625" stop-color="#77570E"/>
<stop offset="0.628906" stop-color="#78570E"/>
<stop offset="0.632812" stop-color="#79580E"/>
<stop offset="0.636719" stop-color="#7A590E"/>
<stop offset="0.640625" stop-color="#7A590E"/>
<stop offset="0.644531" stop-color="#7B5A0E"/>
<stop offset="0.648437" stop-color="#7C5A0E"/>
<stop offset="0.652344" stop-color="#7D5B0E"/>
<stop offset="0.65625" stop-color="#7D5B0E"/>
<stop offset="0.660156" stop-color="#7E5C0F"/>
<stop offset="0.664063" stop-color="#7F5C0F"/>
<stop offset="0.667969" stop-color="#805D0F"/>
<stop offset="0.671875" stop-color="#805D0F"/>
<stop offset="0.675781" stop-color="#815E0F"/>
<stop offset="0.679688" stop-color="#825E0F"/>
<stop offset="0.683594" stop-color="#835F0F"/>
<stop offset="0.6875" stop-color="#83600F"/>
<stop offset="0.691406" stop-color="#84600F"/>
<stop offset="0.695312" stop-color="#85610F"/>
<stop offset="0.699219" stop-color="#86610F"/>
<stop offset="0.703125" stop-color="#86620F"/>
<stop offset="0.707031" stop-color="#876210"/>
<stop offset="0.710937" stop-color="#886310"/>
<stop offset="0.714844" stop-color="#896310"/>
<stop offset="0.71875" stop-color="#896410"/>
<stop offset="0.722656" stop-color="#8A6410"/>
<stop offset="0.726563" stop-color="#8B6510"/>
<stop offset="0.730469" stop-color="#8C6610"/>
<stop offset="0.734375" stop-color="#8C6610"/>
<stop offset="0.738281" stop-color="#8D6710"/>
<stop offset="0.742188" stop-color="#8E6710"/>
<stop offset="0.746094" stop-color="#8E6810"/>
<stop offset="0.75" stop-color="#8F6811"/>
<stop offset="0.753906" stop-color="#906911"/>
<stop offset="0.757812" stop-color="#916911"/>
<stop offset="0.761719" stop-color="#916A11"/>
<stop offset="0.765625" stop-color="#926A11"/>
<stop offset="0.769531" stop-color="#936B11"/>
<stop offset="0.773437" stop-color="#946C11"/>
<stop offset="0.777344" stop-color="#946C11"/>
<stop offset="0.78125" stop-color="#956D11"/>
<stop offset="0.785156" stop-color="#966D11"/>
<stop offset="0.789063" stop-color="#976E11"/>
<stop offset="0.792969" stop-color="#976E11"/>
<stop offset="0.796875" stop-color="#986F12"/>
<stop offset="0.800781" stop-color="#996F12"/>
<stop offset="0.804688" stop-color="#9A7012"/>
<stop offset="0.808594" stop-color="#9A7012"/>
<stop offset="0.8125" stop-color="#9B7112"/>
<stop offset="0.816406" stop-color="#9C7112"/>
<stop offset="0.820312" stop-color="#9D7212"/>
<stop offset="0.824219" stop-color="#9D7312"/>
<stop offset="0.828125" stop-color="#9E7312"/>
<stop offset="0.832031" stop-color="#9F7412"/>
<stop offset="0.835937" stop-color="#A07412"/>
<stop offset="0.839844" stop-color="#A07512"/>
<stop offset="0.84375" stop-color="#A17513"/>
<stop offset="0.847656" stop-color="#A27613"/>
<stop offset="0.851563" stop-color="#A37613"/>
<stop offset="0.855469" stop-color="#A37713"/>
<stop offset="0.859375" stop-color="#A47713"/>
<stop offset="0.863281" stop-color="#A57813"/>
<stop offset="0.867188" stop-color="#A67913"/>
<stop offset="0.871094" stop-color="#A67913"/>
<stop offset="0.875" stop-color="#A77A13"/>
<stop offset="0.878906" stop-color="#A87A13"/>
<stop offset="0.882812" stop-color="#A97B13"/>
<stop offset="0.886719" stop-color="#A97B14"/>
<stop offset="0.890625" stop-color="#AA7C14"/>
<stop offset="0.894531" stop-color="#AB7C14"/>
<stop offset="0.898437" stop-color="#AC7D14"/>
<stop offset="0.902344" stop-color="#AC7D14"/>
<stop offset="0.90625" stop-color="#AD7E14"/>
<stop offset="0.910156" stop-color="#AE7F14"/>
<stop offset="0.914063" stop-color="#AF7F14"/>
<stop offset="0.917969" stop-color="#AF8014"/>
<stop offset="0.921875" stop-color="#B08014"/>
<stop offset="0.925781" stop-color="#B18114"/>
<stop offset="0.929688" stop-color="#B28114"/>
<stop offset="0.933594" stop-color="#B28215"/>
<stop offset="0.9375" stop-color="#B38215"/>
<stop offset="0.941406" stop-color="#B48315"/>
<stop offset="0.945312" stop-color="#B58315"/>
<stop offset="0.949219" stop-color="#B58415"/>
<stop offset="0.953125" stop-color="#B68415"/>
<stop offset="0.957031" stop-color="#B78515"/>
<stop offset="0.960937" stop-color="#B88615"/>
<stop offset="0.964844" stop-color="#B88615"/>
<stop offset="0.96875" stop-color="#B98715"/>
<stop offset="0.972656" stop-color="#BA8715"/>
<stop offset="0.976563" stop-color="#BB8815"/>
<stop offset="0.980469" stop-color="#BB8816"/>
<stop offset="0.984375" stop-color="#BC8916"/>
<stop offset="0.988281" stop-color="#BD8916"/>
<stop offset="0.992188" stop-color="#BD8A16"/>
<stop offset="0.996094" stop-color="#BE8A16"/>
<stop offset="1" stop-color="#BF8B16"/>
</linearGradient>
<clipPath id="clip0_13_1491">
<rect width="1000" height="308" fill="white"/>
</clipPath>
<clipPath id="clip1_13_1491">
<rect width="1000" height="6000" fill="white" transform="translate(0 -4477)"/>
</clipPath>
</defs>
</svg>
